<?xml version="1.0" standalone="no"?>
<!DOCTYPE svg PUBLIC "-//W3C//DTD SVG 20010904//EN"
 "http://www.w3.org/TR/2001/REC-SVG-20010904/DTD/svg10.dtd">
<svg version="1.0" xmlns="http://www.w3.org/2000/svg"
 width="1059.000000pt" height="992.000000pt" viewBox="0 0 1059.000000 992.000000"
 preserveAspectRatio="xMidYMid meet">

<g transform="translate(0.000000,992.000000) scale(0.100000,-0.100000)"
fill="#000000" stroke="none">
<path d="M6180 9905 c-14 -2 -95 -9 -180 -15 -170 -11 -296 -32 -525 -87 -532
-126 -1039 -386 -1464 -750 l-44 -38 -891 0 c-684 0 -896 -3 -912 -12 -24 -14
-29 -21 -254 -373 -89 -140 -192 -301 -229 -358 -36 -57 -121 -190 -189 -295
-67 -106 -149 -232 -181 -282 -32 -49 -95 -148 -141 -220 -45 -71 -90 -136
-98 -142 -12 -10 -128 -13 -500 -13 l-484 0 -34 -34 c-29 -29 -34 -41 -34 -83
0 -92 50 -128 190 -136 52 -3 292 -3 534 1 l438 7 37 41 c28 33 223 330 276
421 6 10 35 56 65 103 30 47 60 93 65 102 6 9 26 40 46 70 40 59 263 410 363
570 22 35 42 65 45 68 8 7 61 89 61 94 0 7 76 121 122 184 l39 52 1587 -2
1587 -3 95 -43 c119 -54 353 -157 487 -213 148 -62 150 -64 162 -180 12 -122
45 -191 132 -277 80 -80 148 -112 258 -123 159 -17 257 17 367 126 70 69 100
121 127 220 23 83 22 116 -2 205 -47 167 -140 265 -314 330 -47 18 -75 21
-145 18 -77 -3 -96 -8 -163 -41 -42 -21 -101 -60 -132 -88 l-56 -49 -93 41
c-175 78 -483 212 -587 255 l-103 44 -547 0 c-300 0 -556 3 -569 6 -40 11 -20
36 78 98 472 295 857 443 1368 523 167 26 194 28 482 27 275 -1 322 -4 472
-27 432 -67 792 -192 1165 -403 122 -70 298 -185 391 -258 81 -62 293 -259
412 -382 266 -274 478 -600 633 -969 77 -184 96 -239 146 -423 67 -246 88
-381 122 -767 11 -134 -16 -474 -52 -655 -25 -122 -25 -124 26 -212 65 -111
74 -128 183 -328 52 -96 118 -215 147 -265 28 -49 68 -121 87 -160 20 -38 72
-134 116 -212 44 -78 83 -151 86 -161 9 -27 -6 -36 -125 -81 -57 -22 -158 -61
-224 -86 -159 -63 -191 -75 -320 -125 -60 -23 -147 -59 -192 -81 -74 -35 -83
-42 -88 -72 -3 -17 -6 -422 -8 -899 -1 -476 -5 -869 -8 -872 -3 -3 -322 -7
-708 -8 l-703 -3 -27 -31 -28 -31 -6 -249 c-4 -137 -7 -394 -7 -571 l0 -323
-37 0 c-328 -4 -3056 0 -3063 5 -7 4 -10 404 -10 1184 0 648 -3 1193 -6 1211
-5 22 -15 36 -34 44 -32 14 -232 141 -320 203 -36 26 -101 78 -146 117 -44 39
-109 96 -145 126 -92 79 -111 99 -106 113 3 9 114 13 474 15 259 1 487 -1 507
-5 41 -9 5 41 455 -643 82 -124 209 -317 284 -430 74 -113 153 -223 176 -243
35 -32 48 -37 89 -37 631 0 662 -2 662 -46 0 -60 112 -187 212 -240 l73 -39
135 0 c131 0 137 1 190 30 79 43 192 158 227 231 26 54 28 68 28 179 0 112 -2
124 -28 176 -81 159 -189 241 -370 279 -57 12 -160 -6 -240 -43 -95 -43 -214
-173 -233 -252 -13 -57 -5 -55 -298 -54 -149 1 -283 4 -298 8 -29 7 -29 7
-332 456 -96 143 -234 347 -306 453 -72 106 -130 198 -128 204 5 15 1127 11
1145 -4 7 -6 18 -27 24 -47 30 -99 150 -219 268 -267 54 -22 83 -27 156 -28
86 0 94 1 177 42 106 51 182 122 229 212 33 64 34 67 34 200 0 134 0 135 -34
199 -18 36 -58 90 -87 122 -123 128 -334 171 -496 100 -110 -47 -219 -161
-255 -266 l-15 -45 -2074 0 -2074 0 -29 27 c-16 16 -150 201 -297 413 -147
212 -335 482 -418 600 -82 118 -167 240 -188 270 -67 96 -222 327 -243 362
l-20 33 -479 0 -478 0 -23 -29 c-45 -57 -35 -122 27 -170 l34 -26 407 0 c453
-1 415 5 465 -74 14 -23 68 -102 120 -176 53 -74 115 -163 139 -197 94 -137
132 -192 193 -278 35 -49 82 -117 105 -150 105 -151 404 -579 465 -665 37 -52
79 -105 92 -117 l24 -22 758 -3 759 -3 51 -60 c198 -233 498 -490 749 -643 31
-19 58 -43 61 -55 9 -36 7 -2214 -3 -2239 -7 -19 -23 -26 -90 -41 -187 -42
-326 -168 -386 -352 -29 -90 -31 -137 -10 -220 29 -109 70 -182 148 -260 55
-55 86 -77 130 -94 l58 -21 1957 2 1957 3 46 23 c142 70 278 290 279 449 0 90
-77 271 -148 346 -46 48 -149 99 -250 123 -52 12 -98 26 -103 31 -5 5 -8 209
-7 479 l3 469 685 5 c377 3 694 9 705 14 11 5 32 20 48 34 l27 26 0 900 c0
496 4 906 8 912 6 10 224 99 502 205 470 178 514 202 514 271 0 36 -42 129
-130 288 -25 47 -116 213 -201 370 -86 157 -189 346 -231 420 -140 251 -142
257 -142 390 0 94 3 120 18 140 15 23 17 59 16 420 0 322 -3 410 -16 475 -9
44 -20 103 -23 130 -13 97 -86 382 -136 530 -128 374 -300 696 -560 1045 -129
174 -456 500 -639 637 -548 412 -1153 655 -1785 719 -137 13 -505 26 -555 19z
m598 -1317 c66 -34 97 -96 96 -194 -1 -79 -9 -97 -65 -152 -87 -86 -220 -82
-306 9 -42 44 -53 77 -53 151 0 97 41 161 130 205 39 19 143 9 198 -19z m129
-4239 c103 -57 132 -103 133 -202 0 -132 -84 -221 -210 -221 -150 0 -251 138
-209 288 12 44 83 120 132 141 47 21 111 18 154 -6z m246 -1362 c61 -47 82
-91 82 -177 0 -89 -18 -127 -84 -177 -40 -31 -48 -33 -121 -33 -54 0 -91 5
-115 17 -103 49 -139 235 -63 328 55 66 81 77 179 73 76 -4 92 -8 122 -31z
m979 -2241 c92 -45 162 -137 174 -228 13 -97 -80 -242 -171 -267 -57 -15
-3693 -16 -3750 0 -63 17 -139 100 -160 173 -40 137 18 257 160 330 l50 25
1820 -2 1820 -2 57 -29z"/>
<path d="M6655 9276 c-16 -7 -38 -22 -48 -34 -18 -20 -25 -81 -13 -119 10 -32
74 -60 151 -66 169 -14 487 -110 689 -208 l64 -31 36 28 c59 47 72 137 27 178
-64 58 -433 179 -732 240 -145 30 -135 29 -174 12z"/>
<path d="M7723 8878 c-25 -28 -53 -81 -53 -102 0 -27 48 -72 157 -146 419
-286 724 -633 949 -1081 164 -326 271 -741 289 -1114 9 -182 27 -214 118 -215
96 0 130 49 128 185 -8 652 -252 1294 -703 1845 -158 194 -370 384 -600 539
-171 115 -241 136 -285 89z"/>
<path d="M4449 8256 c-131 -47 -226 -134 -284 -258 l-36 -78 -763 0 -764 0
-66 -92 c-36 -51 -81 -115 -100 -143 -102 -147 -453 -643 -508 -720 -85 -117
-219 -308 -256 -364 -39 -59 -42 -68 -42 -132 0 -67 1 -69 62 -156 34 -48 82
-118 107 -154 55 -79 148 -210 255 -362 44 -62 100 -142 125 -178 26 -36 131
-186 234 -332 l189 -267 2286 -2 c1258 -1 2305 -2 2328 -3 22 -1 46 -5 52 -9
7 -4 27 -40 45 -79 19 -40 48 -89 65 -108 77 -88 226 -159 337 -160 68 -1 176
32 242 75 128 82 222 242 223 378 0 108 -71 270 -151 343 -133 120 -362 148
-520 64 -84 -45 -171 -139 -199 -216 l-22 -61 -751 -7 c-828 -7 -1344 -2
-1360 14 -6 6 88 155 289 456 164 246 308 461 319 479 11 18 32 49 48 69 15
20 27 40 27 45 0 5 8 16 18 25 16 14 41 17 163 16 287 -3 441 -13 450 -29 4
-8 20 -42 36 -74 92 -195 338 -306 521 -236 162 62 219 109 284 237 43 85 43
86 43 192 0 121 -14 171 -76 261 -43 63 -77 98 -134 132 -81 49 -133 62 -246
63 -101 0 -108 -1 -180 -37 -40 -20 -90 -51 -110 -67 -46 -38 -105 -127 -126
-187 l-15 -45 -337 3 c-303 3 -339 1 -368 -14 -34 -19 -83 -75 -141 -161 -43
-65 -243 -351 -457 -652 -82 -115 -166 -235 -187 -265 -92 -132 -110 -156
-125 -167 -13 -10 -243 -13 -1071 -13 -635 0 -1060 4 -1071 9 -9 6 -60 71
-112 145 -52 75 -152 218 -222 318 -70 101 -183 262 -249 358 -67 96 -135 192
-151 212 -16 20 -26 41 -22 47 7 12 1737 16 1794 5 23 -5 34 -18 61 -77 37
-80 122 -172 191 -207 61 -31 159 -60 207 -60 56 0 170 32 232 66 78 42 161
137 198 225 40 99 48 169 28 249 -66 258 -299 411 -548 359 -116 -24 -254
-130 -298 -228 -12 -25 -27 -57 -33 -71 l-13 -25 -902 -3 c-787 -2 -903 0
-908 13 -3 8 9 33 29 57 19 24 84 115 144 203 60 88 141 204 179 258 38 54 74
105 79 114 6 9 35 52 65 94 30 43 75 108 100 144 25 37 62 88 83 115 20 26 37
52 37 57 0 6 8 17 18 26 17 16 81 17 714 17 785 0 701 9 752 -85 47 -87 142
-176 231 -214 41 -18 70 -22 170 -23 107 -1 125 1 165 22 183 93 272 218 287
402 13 158 -97 347 -244 422 -121 61 -233 71 -344 32z m219 -232 c68 -34 108
-84 122 -151 23 -107 -8 -184 -94 -237 -145 -88 -325 9 -326 175 0 82 11 111
61 161 82 82 148 96 237 52z m-348 -1318 c93 -40 165 -158 142 -234 -18 -60
-68 -129 -114 -158 -56 -36 -139 -44 -192 -19 -50 24 -123 108 -137 158 -28
104 32 212 145 259 55 23 91 21 156 -6z m2700 3 c99 -45 134 -105 128 -223 -4
-99 -23 -131 -105 -175 -67 -37 -126 -40 -182 -11 -102 51 -136 112 -130 233
5 90 30 128 110 170 64 33 116 35 179 6z m773 -1340 c81 -22 147 -111 147
-196 -1 -83 -61 -175 -133 -202 -50 -19 -148 -13 -197 12 -84 42 -137 160
-111 246 36 123 154 179 294 140z"/>
<path d="M778 6633 c-15 -2 -45 -21 -68 -41 -37 -33 -42 -42 -42 -82 -1 -56
14 -85 55 -110 30 -19 52 -20 318 -20 l286 0 48 51 c52 56 54 70 10 138 -41
65 -70 71 -343 70 -130 -1 -249 -4 -264 -6z"/>
<path d="M1959 3803 c-32 -4 -40 -10 -61 -51 -16 -30 -28 -71 -31 -112 -8 -91
-38 -172 -68 -187 -13 -7 -51 -22 -84 -34 -33 -11 -79 -30 -103 -40 -23 -10
-51 -19 -61 -19 -10 0 -63 30 -117 66 -54 36 -111 72 -126 80 -59 31 -109 11
-189 -73 -183 -194 -310 -336 -323 -362 -25 -48 -19 -81 28 -156 25 -39 61
-96 81 -128 l37 -57 -37 -93 c-21 -50 -51 -122 -67 -158 l-30 -66 -68 -6 c-38
-3 -105 -18 -148 -33 -70 -23 -82 -31 -101 -64 -20 -36 -21 -51 -21 -310 0
-256 1 -275 20 -305 28 -46 58 -63 140 -80 39 -8 79 -19 88 -24 9 -5 36 -12
59 -16 22 -3 48 -12 57 -18 9 -7 32 -57 52 -112 20 -55 42 -118 51 -141 18
-52 10 -74 -73 -194 -47 -68 -74 -126 -74 -160 0 -26 27 -59 183 -222 207
-217 255 -258 302 -258 33 0 189 93 247 148 l28 25 77 -35 c43 -20 107 -46
143 -59 36 -12 71 -27 78 -34 7 -6 15 -42 18 -81 7 -85 48 -215 75 -240 20
-18 42 -19 313 -19 160 0 303 3 318 7 37 11 77 116 85 223 6 90 19 119 59 129
14 4 76 29 137 56 127 57 100 62 244 -40 43 -30 95 -63 116 -73 36 -16 39 -16
75 2 44 22 413 395 437 441 23 45 14 71 -75 209 -71 110 -78 125 -70 152 5 17
13 36 18 42 5 7 24 55 42 107 43 128 49 136 107 144 26 4 74 16 106 27 31 10
66 19 76 19 11 0 36 15 55 34 l36 33 0 269 c-1 148 -5 289 -9 314 -12 62 -43
85 -122 94 -35 4 -79 14 -97 22 -19 8 -49 14 -66 14 -17 0 -37 4 -45 9 -13 9
-108 244 -118 292 -4 21 9 47 59 120 35 52 75 115 90 140 26 45 27 46 9 75
-10 16 -71 85 -136 154 -65 69 -145 156 -179 193 -33 38 -76 77 -94 88 -41 26
-112 27 -152 2 -71 -44 -147 -98 -173 -121 l-27 -26 -78 36 c-42 20 -104 47
-137 59 -77 28 -87 38 -96 96 -25 169 -60 270 -97 284 -22 9 -516 10 -593 2z
m453 -161 c4 -4 12 -37 17 -73 5 -35 19 -97 30 -137 19 -63 27 -76 60 -96 21
-14 60 -31 87 -39 81 -25 191 -73 262 -115 37 -22 76 -42 87 -46 15 -4 53 16
140 74 66 44 127 80 135 80 8 0 24 -12 35 -27 11 -16 52 -62 92 -104 90 -93
93 -114 35 -217 -55 -97 -92 -178 -92 -201 0 -11 22 -66 50 -122 27 -56 68
-159 91 -228 24 -74 49 -135 62 -147 26 -26 130 -61 207 -70 30 -4 61 -11 68
-17 15 -12 18 -332 2 -342 -6 -4 -32 -8 -58 -10 -111 -10 -150 -18 -192 -38
-36 -18 -50 -33 -72 -77 -15 -30 -28 -63 -28 -73 0 -21 -42 -128 -90 -232 -60
-129 -55 -185 30 -305 33 -47 60 -91 60 -97 0 -16 -185 -219 -207 -227 -16 -6
-34 3 -168 89 -89 58 -117 58 -218 5 -42 -22 -134 -63 -204 -91 -71 -28 -136
-59 -146 -67 -25 -22 -57 -94 -57 -128 0 -37 -29 -145 -46 -172 -13 -20 -22
-22 -97 -22 -45 0 -105 3 -133 6 -46 6 -54 10 -72 43 -11 20 -23 67 -27 106
-11 121 -52 181 -140 209 -114 35 -175 59 -272 106 -59 29 -117 50 -136 50
-34 0 -79 -26 -158 -92 -73 -60 -87 -55 -197 59 -51 53 -95 107 -98 120 -5 17
4 38 32 78 43 61 74 111 104 167 l19 36 -55 113 c-31 62 -71 161 -91 218 -57
173 -80 205 -153 217 -19 3 -74 15 -121 26 l-86 20 -5 132 c-7 175 -3 195 36
211 17 7 58 15 91 19 67 8 133 37 169 75 13 14 34 55 46 91 32 93 68 184 107
272 55 126 51 156 -45 310 -23 37 -42 78 -42 91 0 34 204 246 224 232 8 -5 54
-37 103 -71 140 -97 115 -95 266 -20 73 36 176 79 230 97 124 40 162 72 172
144 3 28 11 61 17 75 5 14 14 49 19 79 5 30 14 59 21 63 15 11 289 1 300 -10z"/>
<path d="M2065 2811 c-49 -15 -116 -40 -148 -55 -140 -67 -290 -213 -359 -351
-81 -160 -102 -261 -95 -466 4 -129 7 -144 70 -294 54 -128 187 -285 295 -348
172 -100 210 -111 416 -114 194 -4 199 -3 346 65 62 28 193 121 228 161 90
103 202 293 202 344 0 12 8 36 17 52 12 23 17 65 21 176 4 142 3 148 -27 240
-51 152 -102 245 -183 334 -98 109 -147 148 -248 197 -186 91 -367 111 -535
59z m300 -221 c47 -12 106 -32 131 -45 196 -104 315 -291 331 -516 5 -74 2
-98 -22 -180 -35 -121 -84 -209 -160 -285 -123 -124 -314 -186 -478 -155 -102
19 -220 82 -296 158 -81 82 -115 134 -148 226 -20 59 -24 88 -25 210 -1 131 1
148 26 211 55 145 139 246 264 319 35 20 82 40 105 44 23 3 56 12 72 19 43 19
101 17 200 -6z"/>
</g>
</svg>
