<?xml version="1.0" standalone="no"?>
<!DOCTYPE svg PUBLIC "-//W3C//DTD SVG 20010904//EN"
 "http://www.w3.org/TR/2001/REC-SVG-20010904/DTD/svg10.dtd">
<svg version="1.0" xmlns="http://www.w3.org/2000/svg"
 width="1058.000000pt" height="1018.000000pt" viewBox="0 0 1058.000000 1018.000000"
 preserveAspectRatio="xMidYMid meet">

<g transform="translate(0.000000,1018.000000) scale(0.100000,-0.100000)"
fill="#000000" stroke="none">
<path d="M26 10152 c-10 -16 -9 -10113 1 -10123 5 -5 1009 -8 2584 -7 l2574 3
3 128 3 127 -2453 0 c-1349 0 -2459 4 -2465 8 -10 6 -13 903 -13 4342 0 2383
1 4335 3 4336 2 2 1663 5 3692 7 3074 2 3690 0 3702 -11 10 -11 13 -85 13
-370 0 -196 -4 -363 -8 -369 -6 -10 -365 -13 -1718 -15 l-1709 -3 -3 -592 -2
-593 125 0 125 0 2 473 3 472 2500 0 2500 0 5 -2590 5 -2590 120 0 c108 0 120
2 119 18 0 9 -1 1230 -2 2712 l-2 2695 -890 0 c-869 0 -890 0 -900 19 -7 13
-10 336 -10 975 l0 956 -3949 0 c-2173 0 -3952 -4 -3955 -8z m6012 -264 c19
-19 17 -651 -2 -667 -10 -9 -586 -11 -2267 -9 -1240 2 -2535 5 -2879 8 l-625
5 -3 325 c-1 179 0 330 3 337 6 18 5755 19 5773 1z m810 0 c15 -15 17 -635 3
-657 -13 -20 -540 -18 -553 2 -9 15 -11 651 -1 660 3 4 126 7 273 7 193 0 269
-3 278 -12z m810 0 c15 -15 17 -635 3 -657 -8 -12 -54 -14 -278 -12 -157 1
-272 6 -278 12 -11 11 -20 606 -10 646 l5 23 273 0 c199 0 276 -3 285 -12z"/>
<path d="M750 8370 l0 -150 136 0 137 0 -7 31 c-3 17 -6 85 -6 150 l0 119
-130 0 -130 0 0 -150z"/>
<path d="M1352 8398 l3 -123 160 0 160 0 3 123 3 122 -166 0 -166 0 3 -122z"/>
<path d="M2030 8395 l0 -125 150 0 150 0 0 125 0 125 -150 0 -150 0 0 -125z"/>
<path d="M2690 8411 c0 -60 3 -116 6 -125 5 -14 29 -16 160 -16 l154 0 0 125
0 125 -160 0 -160 0 0 -109z"/>
<path d="M3352 8398 l3 -123 135 -3 c195 -4 180 -15 180 128 l0 120 -160 0
-161 0 3 -122z"/>
<path d="M763 7873 c-10 -3 -13 -47 -13 -169 l0 -164 130 0 131 0 -2 153 c0
83 -5 160 -10 170 -8 15 -25 17 -117 16 -59 0 -113 -3 -119 -6z"/>
<path d="M5095 7681 c-111 -21 -263 -138 -318 -246 -32 -65 -43 -175 -27 -277
7 -45 9 -81 4 -89 -13 -20 -563 -561 -742 -729 -85 -80 -160 -146 -167 -148
-8 -2 -43 11 -79 28 -50 24 -84 33 -144 37 -101 7 -168 -8 -252 -57 -38 -22
-77 -40 -88 -40 -22 0 -56 15 -347 150 -33 16 -98 45 -145 65 -194 85 -193 84
-185 102 19 48 17 139 -5 203 -48 143 -122 229 -243 284 -71 33 -86 36 -170
36 -126 0 -204 -31 -293 -114 -55 -52 -71 -75 -104 -154 -33 -77 -40 -103 -40
-160 0 -50 5 -75 20 -97 43 -65 37 -74 -168 -276 -103 -101 -267 -261 -366
-354 -158 -151 -182 -170 -210 -168 -17 1 -85 3 -152 4 -116 2 -123 1 -178
-27 -78 -39 -158 -112 -195 -179 -59 -105 -63 -282 -9 -392 34 -68 118 -155
187 -192 181 -96 436 -35 543 131 61 96 70 125 75 238 5 98 3 108 -21 153 -14
26 -26 58 -26 71 0 17 66 89 248 269 136 134 283 278 327 318 43 41 91 87 106
103 l28 29 58 -17 c32 -10 71 -22 87 -27 72 -23 218 5 292 55 40 27 72 32 102
17 34 -19 178 -84 212 -96 19 -7 82 -35 140 -62 58 -28 134 -63 170 -78 36
-16 80 -40 98 -53 31 -24 32 -27 32 -96 0 -160 116 -334 269 -403 48 -22 71
-25 161 -26 98 -1 110 2 173 31 95 44 177 128 222 226 18 41 37 89 40 108 6
31 -5 115 -20 164 -6 18 40 68 297 321 167 165 339 333 383 375 154 144 270
248 279 248 5 0 17 -6 25 -14 20 -17 150 -56 185 -56 34 0 148 36 206 66 63
31 154 128 184 194 48 106 43 267 -11 374 -77 152 -284 257 -448 227z m190
-302 c72 -67 83 -138 31 -216 -34 -51 -91 -83 -148 -83 -153 0 -233 181 -131
296 31 35 55 43 131 44 71 0 73 -1 117 -41z m-3008 -651 c47 -23 67 -62 71
-138 5 -84 -16 -126 -82 -165 -177 -104 -349 141 -199 282 19 17 46 34 61 36
41 8 119 -1 149 -15z m1368 -727 c83 -38 121 -109 109 -200 -22 -155 -253
-190 -325 -49 -16 32 -20 54 -17 98 5 65 26 99 90 143 48 32 87 34 143 8z
m-2689 -583 c66 -45 94 -89 94 -147 0 -93 -90 -187 -176 -185 -94 2 -195 113
-181 199 12 71 116 164 183 165 19 0 51 -13 80 -32z"/>
<path d="M7230 6257 l0 -957 950 0 949 0 7 35 c10 57 -13 372 -35 469 -46 201
-139 424 -243 583 -194 298 -383 469 -693 628 -248 127 -458 181 -751 191
l-184 7 0 -956z m412 678 c191 -34 396 -120 573 -239 116 -79 342 -302 414
-411 135 -204 249 -523 239 -666 l-3 -44 -90 -8 c-49 -4 -357 -6 -683 -5 -514
3 -594 5 -602 18 -11 17 -14 1338 -4 1365 5 13 15 16 38 12 17 -4 70 -13 118
-22z"/>
<path d="M752 7048 l3 -153 125 0 125 0 0 150 0 150 -128 3 -128 3 3 -153z"/>
<path d="M6815 6760 c-88 -4 -180 -13 -204 -19 -23 -7 -64 -15 -90 -17 -46 -5
-137 -32 -223 -66 -26 -10 -53 -18 -61 -18 -17 0 -249 -117 -298 -150 -20 -14
-61 -41 -90 -62 -77 -52 -223 -188 -316 -293 -202 -229 -330 -491 -398 -813
-25 -117 -26 -135 -22 -370 3 -209 6 -262 25 -342 42 -185 130 -406 222 -555
108 -177 290 -381 420 -475 154 -110 240 -163 330 -206 313 -147 606 -193
1015 -158 97 8 327 67 420 108 185 82 265 127 410 232 120 86 307 275 392 394
59 85 73 108 112 185 12 22 25 47 30 55 5 8 19 38 32 65 12 28 26 58 30 67 32
65 88 275 99 368 6 41 15 120 22 175 7 55 13 132 13 170 l0 70 -828 2 c-456 1
-832 4 -835 8 -4 4 -9 376 -12 828 -4 721 -7 822 -20 823 -8 0 -87 -2 -175 -6z
m-65 -280 c7 -13 10 -248 8 -738 l-3 -719 -59 -69 c-68 -79 -146 -164 -256
-279 -42 -44 -100 -109 -130 -145 -29 -36 -119 -135 -199 -220 -80 -86 -168
-183 -195 -215 -72 -86 -139 -155 -151 -155 -15 1 -122 141 -192 252 -101 162
-180 376 -202 548 -6 47 -15 115 -21 152 -6 45 -7 98 0 155 16 145 39 292 49
311 5 9 12 37 16 62 4 25 14 54 21 65 8 11 14 26 14 33 0 7 22 59 48 115 43
90 67 132 122 212 8 12 27 39 41 61 46 68 250 263 344 329 197 137 516 263
672 264 52 1 64 -2 73 -19z m1669 -1629 c12 -8 11 -22 -7 -98 -12 -49 -22 -97
-22 -108 0 -10 -18 -73 -41 -139 -78 -230 -201 -433 -361 -595 -130 -132 -325
-269 -348 -245 -4 5 -45 90 -90 189 -130 284 -197 430 -267 575 -36 74 -81
169 -100 210 -19 41 -46 98 -59 126 -25 52 -29 75 -17 87 10 11 1296 8 1312
-2z m-1492 -251 c118 -254 146 -315 218 -465 40 -82 88 -186 108 -230 50 -115
94 -210 133 -290 19 -38 30 -73 26 -77 -4 -4 -28 -12 -52 -17 -25 -5 -65 -16
-90 -24 -50 -16 -145 -34 -260 -48 -80 -10 -274 -2 -324 13 -17 5 -63 13 -102
18 -40 5 -87 16 -105 24 -19 8 -65 24 -104 36 -109 33 -274 117 -382 195 -13
9 -23 24 -23 34 0 10 29 47 63 82 35 35 108 116 162 179 53 63 134 153 179
200 66 68 175 189 241 266 6 7 51 56 100 109 50 54 96 107 103 117 26 37 45
15 109 -122z"/>
<path d="M4230 3906 c0 -2014 0 -2014 21 -2082 62 -205 162 -350 314 -459 77
-54 119 -75 228 -114 l89 -31 1382 0 c1062 0 1385 -3 1394 -12 16 -16 17 -879
2 -909 -10 -19 -32 -19 -1001 -19 l-990 0 3 -127 3 -128 1127 -3 1128 -2 2
597 3 598 995 5 c984 5 996 5 1050 26 102 39 189 85 249 130 65 49 177 164
192 198 5 11 22 41 37 66 64 104 102 261 102 428 l0 82 -2480 0 c-2441 0
-2479 0 -2490 -19 -5 -11 -10 -46 -10 -79 0 -62 -28 -190 -57 -257 -49 -116
-180 -244 -300 -294 -67 -27 -206 -38 -297 -22 -109 19 -189 63 -283 156 -86
85 -121 144 -145 241 -9 37 -13 545 -15 2047 l-3 1997 -125 0 -125 0 0 -2014z
m6049 -2015 c11 -7 11 -16 1 -47 -17 -55 -82 -161 -127 -210 -65 -69 -180
-133 -278 -155 -66 -15 -4231 -24 -4240 -9 -7 11 15 56 59 119 31 45 61 108
107 226 13 33 27 66 32 73 8 9 463 12 2221 12 1228 0 2217 -4 2225 -9z"/>
<path d="M3477 5044 c-4 -4 -7 -74 -7 -156 l0 -149 123 3 122 3 0 150 0 150
-116 3 c-63 1 -118 -1 -122 -4z"/>
<path d="M3472 4238 l3 -163 117 -3 c141 -3 131 -18 126 184 l-3 139 -123 3
-122 3 2 -163z"/>
<path d="M3460 3570 l0 -150 130 0 131 0 -3 148 -3 147 -127 3 -128 3 0 -151z"/>
<path d="M797 3673 c-4 -3 -7 -62 -7 -129 l0 -123 138 -3 c201 -4 182 -16 182
110 0 165 14 152 -159 152 -81 0 -151 -3 -154 -7z"/>
<path d="M1477 3673 c-4 -3 -7 -62 -7 -130 l0 -124 152 3 153 3 -4 120 c-1 66
-5 123 -8 128 -5 9 -277 10 -286 0z"/>
<path d="M2127 3674 c-9 -10 -9 -242 1 -247 6 -4 276 -11 310 -8 10 1 12 31
10 129 l-3 127 -156 3 c-85 1 -158 -1 -162 -4z"/>
<path d="M2797 3673 c-4 -3 -7 -61 -7 -129 l0 -122 143 -4 c78 -2 148 -2 155
0 8 3 12 34 12 111 0 164 13 151 -154 151 -79 0 -146 -3 -149 -7z"/>
<path d="M790 2325 l0 -115 78 -1 c42 0 644 0 1337 0 693 1 1284 1 1313 1 l52
0 0 115 0 115 -1390 0 -1390 0 0 -115z"/>
<path d="M892 1842 l-103 -3 3 -122 3 -122 1388 -3 1388 -2 -3 126 -3 127
-1285 1 c-707 1 -1331 0 -1388 -2z"/>
<path d="M790 1110 l0 -130 1390 0 1390 0 0 130 0 130 -1390 0 -1390 0 0 -130z"/>
</g>
</svg>
